PHISH - November 2nd, 1989
Granite State Room - Memorial Union Building, University of New Hampshire
Durham, NH

Recording Info:
Aud -> Tascam PE-120 mics -> Sony WMD-6C (Maxell XL-IIs 90's) ->
Cool Edit Pro 2 -> 16 bit 44.1khz .wav -> mkwACT -> .shn

Taped, transfered and remastered by Tim Leavy
footbear@msn.com
July 16th, 2008

Notes:
-- There was a blown speaker in one of the PA stacks for the entire first set that makes 
   the upper-mids a bit scrathcy at times. It was finally replaced between Golgi and YEM.
-- Tape flip in Reba
-- Due to time restrictions, there was no encore.
-- Discs 1 and 2 are seamless

DISC ONE
Set 1:
d1t01 - Bathtub Gin
d1t02 - Foam
d1t03 - Mike's Song >
d1t04 - I Am Hydrogen >
d1t05 - Weekapaug Groove
d1t06 - Fee
d1t07 - The Curtain >
d1t08 - Reba*
d1t09 - Split Open and Melt
d1t10 - Esther

DISC TWO
d2t01 - Good Times Bad Times
Set 2:
d2t02 - Oh Kee Pa Ceremony >
d2t03 - Golgi Apparatus
d2t04 - PA fix / Crew introduction
d2t05 - You Enjoy Myself >
d2t06 - Kung
d2t07 - Divided Sky intro/Rhombus story >
d2t08 - Divided Sky
d2t09 - McGrupp and the Watchful Hosemasters > Who Do? We Do! >
d2t10 - AC/DC Bag
d2t11 - My Sweet One
d2t12 - Highway to Hell

*Cool early version with added structure

SHNTOOL OUTPUT:
    length     expanded size    cdr  WAVE problems  fmt   ratio  filename
     6:24.62       67883468 B   ---   --   -----    wav  1.0000  ph1989-11-02d1t01.wav
     8:09.15       86294924 B   ---   --   -----    wav  1.0000  ph1989-11-02d1t02.wav
    14:07.49      149526092 B   ---   --   -----    wav  1.0000  ph1989-11-02d1t03.wav
     2:20.33       24773660 B   ---   --   -----    wav  1.0000  ph1989-11-02d1t04.wav
     5:31.56       58520156 B   ---   --   -----    wav  1.0000  ph1989-11-02d1t05.wav
     5:17.15       55954124 B   ---   --   -----    wav  1.0000  ph1989-11-02d1t06.wav
     6:26.31       68163356 B   ---   --   -----    wav  1.0000  ph1989-11-02d1t07.wav
    13:38.29      144363452 B   ---   --   -----    wav  1.0000  ph1989-11-02d1t08.wav
     8:58.31       94976156 B   ---   --   -----    wav  1.0000  ph1989-11-02d1t09.wav
     8:53.46       94129436 B   ---   --   -----    wav  1.0000  ph1989-11-02d1t10.wav
     6:37.27       70094348 B   ---   --   -----    wav  1.0000  ph1989-11-02d2t01.wav
     2:32.16       26850476 B   ---   --   -----    wav  1.0000  ph1989-11-02d2t02.wav
     4:44.19       50142332 B   ---   --   -----    wav  1.0000  ph1989-11-02d2t03.wav
     3:59.70       42324284 B   ---   --   -----    wav  1.0000  ph1989-11-02d2t04.wav
    16:43.12      176957468 B   ---   --   -----    wav  1.0000  ph1989-11-02d2t05.wav
     1:47.57       19008908 B   ---   --   -----    wav  1.0000  ph1989-11-02d2t06.wav
     3:08.63       33311420 B   ---   --   -----    wav  1.0000  ph1989-11-02d2t07.wav
    12:03.63      127685420 B   ---   --   -----    wav  1.0000  ph1989-11-02d2t08.wav
     9:24.57       99623708 B   ---   --   -----    wav  1.0000  ph1989-11-02d2t09.wav
     7:13.39       76472972 B   ---   --   -----    wav  1.0000  ph1989-11-02d2t10.wav
     2:05.23       22104140 B   ---   --   -----    wav  1.0000  ph1989-11-02d2t11.wav
     4:12.70       44617484 B   ---   --   -----    wav  1.0000  ph1989-11-02d2t12.wav
   154:21.58     1633777784 B                            1.0000  (22 files)

41aff285f0d62f93c8c77eb282443229 *ph1989-11-02d1t01.shn
e8f58379e7f886878f367b0c36005c42 *ph1989-11-02d1t02.shn
57cb3bda8dd047155e6f7c13f2b3122d *ph1989-11-02d1t03.shn
b5db64a4c584a4848fabc839bdc03651 *ph1989-11-02d1t04.shn
77b60cd3acf0b1e49e5c8505ee1bee65 *ph1989-11-02d1t05.shn
145403c19b1ad6fc6e3931c94552a00e *ph1989-11-02d1t06.shn
b5e994edc949b5af5234908da67585bb *ph1989-11-02d1t07.shn
663c4cad61de8b0678f98bcce63c00a3 *ph1989-11-02d1t08.shn
489ce0a2e6f7aa955587e7fcf6754873 *ph1989-11-02d1t09.shn
47a4457dd4509d344a264d9b45e5f508 *ph1989-11-02d1t10.shn
c97460eea27fdc87ae6eec608756fe1a *ph1989-11-02d2t01.shn
477aa1fa5980fc7b973b5e353c390c89 *ph1989-11-02d2t02.shn
cfbd2472f93dcaae9ce8e810e08af19f *ph1989-11-02d2t03.shn
1d782e734b6761090c7f87fe167e2609 *ph1989-11-02d2t04.shn
ce9402504448c6784c5dfe9f209a4e3a *ph1989-11-02d2t05.shn
f5380f2cc952e8f0eef73548863695e3 *ph1989-11-02d2t06.shn
3f2685271be7b1ecead5e3501578f083 *ph1989-11-02d2t07.shn
d0b836bbd9214f9a1274d4f70f81e092 *ph1989-11-02d2t08.shn
88b5df7fa44b98400664738d94876368 *ph1989-11-02d2t09.shn
f49c69bf845db2e418e52df3d52bf4e2 *ph1989-11-02d2t10.shn
9d9aa1b20698c5cdbfe3161d5bc1018d *ph1989-11-02d2t11.shn
fc155942f50763cdd7eb2c120abb2ade *ph1989-11-02d2t12.shn



